/* XPM */
static char * E:\GitHub\PWRB\share\pixmaps\pwrb32_xpm[] = {
"32 32 320 2",
"  	c None",
". 	c #FB44FA",
"+ 	c #FC44FA",
"@ 	c #FA43F9",
"# 	c #FB43F9",
"$ 	c #FB43FA",
"% 	c #F942F8",
"& 	c #F942F9",
"* 	c #FA42F9",
"= 	c #F742F7",
"- 	c #F841F7",
"; 	c #F987F9",
"> 	c #FCC2FC",
", 	c #FEE3FD",
"' 	c #FFF6FF",
") 	c #FFFFFF",
"! 	c #FA87FA",
"~ 	c #F943F8",
"{ 	c #F641F6",
"] 	c #F640F6",
"^ 	c #F992F9",
"/ 	c #FDE6FD",
"( 	c #FFFBFF",
"_ 	c #FDDFFD",
": 	c #FCCBFC",
"< 	c #FAB2FA",
"[ 	c #FBB2FA",
"} 	c #FEE6FD",
"| 	c #FA92F9",
"1 	c #F841F8",
"2 	c #F842F8",
"3 	c #F540F5",
"4 	c #F53FF5",
"5 	c #F554F6",
"6 	c #FBD0FC",
"7 	c #FDEDFD",
"8 	c #F9AAF9",
"9 	c #F652F6",
"0 	c #F779F7",
"a 	c #F9A9F9",
"b 	c #FAB0FA",
"c 	c #F879F7",
"d 	c #F653F6",
"e 	c #FEEDFE",
"f 	c #FCD0FC",
"g 	c #F754F7",
"h 	c #F740F7",
"i 	c #F33FF4",
"j 	c #F33EF4",
"k 	c #F45EF5",
"l 	c #FFFCFF",
"m 	c #F9BAF9",
"n 	c #F454F5",
"o 	c #F9B5F9",
"p 	c #FEEFFE",
"q 	c #F9B5FA",
"r 	c #F555F6",
"s 	c #FABAFA",
"t 	c #F65EF6",
"u 	c #F540F6",
"v 	c #F13DF2",
"w 	c #F23DF3",
"x 	c #F252F3",
"y 	c #FCE6FC",
"z 	c #FEFAFF",
"A 	c #F590F6",
"B 	c #F58AF6",
"C 	c #FDEFFE",
"D 	c #F68AF7",
"E 	c #F690F7",
"F 	c #F453F5",
"G 	c #F43FF5",
"H 	c #F03CF1",
"I 	c #F03CF2",
"J 	c #FAD0FA",
"K 	c #F490F5",
"L 	c #F59BF6",
"M 	c #F69CF7",
"N 	c #FAD0FB",
"O 	c #F33EF3",
"P 	c #EE3BF0",
"Q 	c #F391F4",
"R 	c #F7B9F7",
"S 	c #F389F4",
"T 	c #F48AF5",
"U 	c #F8BAF8",
"V 	c #F591F6",
"W 	c #F13DF3",
"X 	c #ED3AEF",
"Y 	c #FBE6FC",
"Z 	c #FCEDFD",
"` 	c #EE51F0",
" .	c #FDEFFD",
"..	c #F052F2",
"+.	c #EB39EE",
"@.	c #F084F2",
"#.	c #F3A8F5",
"$.	c #F4B4F6",
"%.	c #F6B5F7",
"&.	c #F4A9F6",
"*.	c #F285F3",
"=.	c #E937EC",
"-.	c #E937ED",
";.	c #EA38ED",
">.	c #F5C1F6",
",.	c #FEFBFE",
"'.	c #EB4DEE",
").	c #FCEFFD",
"!.	c #ED4EEF",
"~.	c #F6C1F7",
"{.	c #E836EB",
"].	c #FAE3FB",
"^.	c #F9DEFA",
"/.	c #EC76EF",
"(.	c #FFEEFD",
"_.	c #FFE3FB",
":.	c #FFEBFC",
"<.	c #FFFAFE",
"[.	c #FFE9FC",
"}.	c #FFFDFF",
"|.	c #FFE6FC",
"1.	c #FFEFFD",
"2.	c #FFF5FE",
"3.	c #FFF3FD",
"4.	c #FFE4FC",
"5.	c #FFF6FE",
"6.	c #FFE5FC",
"7.	c #FFFBFE",
"8.	c #EE76F0",
"9.	c #FADEFA",
"0.	c #EB38EE",
"a.	c #E635EA",
"b.	c #FDF6FE",
"c.	c #F5CAF7",
"d.	c #F0A7F2",
"e.	c #FFD2FA",
"f.	c #FFB0F6",
"g.	c #FF89F3",
"h.	c #FFCDF9",
"i.	c #FF73F2",
"j.	c #FF83F3",
"k.	c #FF69F2",
"l.	c #FF81F3",
"m.	c #FFEBFD",
"n.	c #FF72F2",
"o.	c #FFA5F5",
"p.	c #FFA4F5",
"q.	c #F1A7F3",
"r.	c #F6CAF7",
"s.	c #FEF6FE",
"t.	c #E434E9",
"u.	c #E534E9",
"v.	c #F1B0F3",
"w.	c #F0AEF2",
"x.	c #FFF7FE",
"y.	c #FFF2FD",
"z.	c #FFC3F8",
"A.	c #FFB7F7",
"B.	c #FFC2F8",
"C.	c #FFC4F8",
"D.	c #FF96F4",
"E.	c #FF93F4",
"F.	c #FFFEFF",
"G.	c #FFF0FD",
"H.	c #FF79F2",
"I.	c #FFE1FB",
"J.	c #FFBCF7",
"K.	c #FFAFF6",
"L.	c #F1AEF3",
"M.	c #F2B1F4",
"N.	c #E333E7",
"O.	c #E333E8",
"P.	c #F0B0F2",
"Q.	c #EFAEF2",
"R.	c #FFABF6",
"S.	c #FF85F3",
"T.	c #FFF4FE",
"U.	c #FF74F2",
"V.	c #FF92F4",
"W.	c #FF66F1",
"X.	c #FFA1F5",
"Y.	c #FFD5FA",
"Z.	c #FFF9FE",
"`.	c #FF5AF1",
" +	c #FF71F2",
".+	c #FFA8F6",
"++	c #FF8EF4",
"@+	c #F0AEF3",
"#+	c #E132E6",
"$+	c #FDF6FD",
"%+	c #F3CAF5",
"&+	c #EDA6F0",
"*+	c #FF9FF5",
"=+	c #FF82F3",
"-+	c #FF62F1",
";+	c #FF88F3",
">+	c #FFEDFD",
",+	c #FFE7FC",
"'+	c #FF78F2",
")+	c #EEA6F1",
"!+	c #F4CAF6",
"~+	c #DF31E5",
"{+	c #E031E5",
"]+	c #F8E2F9",
"^+	c #F7DEF8",
"/+	c #E574EA",
"(+	c #FFF3FE",
"_+	c #FFE8FC",
":+	c #FFE2FB",
"<+	c #FFE3FC",
"[+	c #E774EB",
"}+	c #F8DEF9",
"|+	c #F9E2FA",
"1+	c #DE30E4",
"2+	c #F0C0F3",
"3+	c #E048E5",
"4+	c #FBEFFC",
"5+	c #E249E7",
"6+	c #F1C0F4",
"7+	c #DC2FE3",
"8+	c #E481E9",
"9+	c #EAA7EE",
"0+	c #EDB3F0",
"a+	c #EEB3F1",
"b+	c #ECA7EF",
"c+	c #E682EA",
"d+	c #DB2DE1",
"e+	c #DB2EE2",
"f+	c #F8E5F9",
"g+	c #FAECFB",
"h+	c #DD4AE3",
"i+	c #FBEFFB",
"j+	c #DF4BE5",
"k+	c #DE2FE4",
"l+	c #D92DE0",
"m+	c #E48DE9",
"n+	c #ECB8F0",
"o+	c #E385E8",
"p+	c #E486E9",
"q+	c #EDB8F0",
"r+	c #E68EEA",
"s+	c #DC2EE2",
"t+	c #DC2EE3",
"u+	c #D82CDF",
"v+	c #F1CFF4",
"w+	c #FEFCFE",
"x+	c #E38CE8",
"y+	c #E598EA",
"z+	c #E698EB",
"A+	c #E48CE9",
"B+	c #F2CFF4",
"C+	c #DA2DE1",
"D+	c #D72BDE",
"E+	c #D62BDE",
"F+	c #D847E0",
"G+	c #F7E5F8",
"H+	c #FEFAFE",
"I+	c #E28CE7",
"J+	c #E185E6",
"K+	c #FAEFFB",
"L+	c #E285E7",
"M+	c #F7E5F9",
"N+	c #DA48E1",
"O+	c #D92CE0",
"P+	c #D52CDD",
"Q+	c #D52ADD",
"R+	c #D953E0",
"S+	c #EAB7EE",
"T+	c #D847DF",
"U+	c #E9B3ED",
"V+	c #D948E0",
"W+	c #EBB7EF",
"X+	c #DA54E1",
"Y+	c #D72BDF",
"Z+	c #D82DDF",
"`+	c #D42ADC",
" @	c #D429DC",
".@	c #D646DE",
"+@	c #F0CEF3",
"@@	c #F9ECFA",
"#@	c #E6A6EA",
"$@	c #D644DE",
"%@	c #DC71E2",
"&@	c #E5A5EA",
"*@	c #E7ADEC",
"=@	c #E6A5EA",
"-@	c #DC72E3",
";@	c #D744DF",
">@	c #E6A6EB",
",@	c #D746DF",
"'@	c #D62ADE",
")@	c #D62CDE",
"!@	c #D32ADB",
"~@	c #D328DB",
"{@	c #DF8CE5",
"]@	c #F6E5F8",
"^@	c #F4DDF6",
"/@	c #EEC9F1",
"(@	c #E8AFEC",
"_@	c #E08DE6",
":@	c #D429DD",
"<@	c #D52BDD",
"[@	c #D229DB",
"}@	c #D127DA",
"|@	c #D127DB",
"1@	c #D227DB",
"2@	c #DC7FE3",
"3@	c #EBBFEE",
"4@	c #F5E2F7",
"5@	c #FCF6FD",
"6@	c #EBBFEF",
"7@	c #DD80E3",
"8@	c #D328DC",
"9@	c #D32ADC",
"0@	c #D027DA",
"a@	c #D228DB",
"b@	c #CF26D9",
"c@	c #D026D9",
"d@	c #D026DA",
"e@	c #CF25D8",
"                        . + + + + + + +                         ",
"                  @ @ @ @ # $ $ $ $ $ $ $ $ $                   ",
"              % % % % % & & & * * * * @ @ @ @ @ @               ",
"            = - - - - ; > , ' ) ) ' , > ! % % % % ~             ",
"          { ] ] ] ^ / ) ( _ : < [ : _ ( ) } | - - 1 2           ",
"        3 4 4 5 6 ) 7 8 9 0 a b b a c d 8 e ) f g h h =         ",
"      i j j k / l m n o p ) ) ) ) ) ) p q r s l / t u u {       ",
"    v w w x y z A B C ) ) ) ) ) ) ) ) ) ) p D E ( / F G G G     ",
"    H I I J l K L ( ) ) ) ) ) ) ) ) ) ) ) ) ( M A l N O j j     ",
"  P P P Q ) R S ( ) ) ) ) ) ) ) ) ) ) ) ) ) ) ( T U ) V v W W   ",
"  X X X Y Z `  .) ) ) ) ) ) ) ) ) ) ) ) ) ) ) )  ...7 y H H H   ",
"  +.+.@.) #.$.) ) ) ) ) ) ) ) ) ) ) ) ) ) ) ) ) ) %.&.) *.P P   ",
"=.-.;.>.,.'.).) ) ) ) ) ) ) ) ) ) ) ) ) ) ) ) ) )  .!.,.~.X X X ",
"{.{.{.].^./.) (._.:.<.[.}.|.1.2.1.3._.4.5.<._.6.7.) 8.9.].0.+.+.",
"a.a.a.b.c.d.) e.f.g.h.i.2.j.k.2.l.m.f.f.n.:.f.o.p.) q.r.s.=.-.;.",
"t.t.u.) v.w.) x.y.z.A.B.B.C.D.6.E.F.y.G.H.I.J.K.p.) L.M.) {.{.{.",
"N.O.O.) P.Q.) R.S.o.y.T.U.V.W.X.Y.Z.`. +.+[.++e.H.F.@+v.) a.a.a.",
"#+#+#+$+%+&+) R.[.) ) ) *+=+A.-+l Z.;+>+=+,+H.f.'+) )+!+b.t.t.u.",
"~+~+{+]+^+/+) >+<.) ) ) (+(.5.:.) F._+) [.T.:+<+5.) [+}+|+N.O.O.",
"1+1+1+2+,.3+4+) ) ) ) ) ) ) ) ) ) ) ) ) ) ) ) ) ) 4+5+,.6+#+#+#+",
"  7+7+8+) 9+0+) ) ) ) ) ) ) ) ) ) ) ) ) ) ) ) ) ) a+b+) c+~+~+  ",
"  d+e+e+f+g+h+i+) ) ) ) ) ) ) ) ) ) ) ) ) ) ) ) i+j+g+f+k+1+1+  ",
"  l+l+l+m+) n+o+,.) ) ) ) ) ) ) ) ) ) ) ) ) ) ,.p+q+) r+s+t+7+  ",
"    u+u+u+v+w+x+y+,.) ) ) ) ) ) ) ) ) ) ) ) ,.z+A+w+B+C+C+d+    ",
"    D+E+E+F+G+H+I+J+K+) ) ) ) ) ) ) ) ) ) K+L+x+H+M+N+O+O+l+    ",
"      P+Q+Q+R+G+w+S+T+U+K+) ) ) ) ) ) K+U+V+W+w+G+X+Y+Y+Z+      ",
"        `+ @ @.@+@) @@#@$@%@&@*@*@=@-@;@>@@@) +@,@'@'@)@        ",
"          !@~@~@~@{@]@) ,.^@/@(@(@/@^@,.) ]@_@:@:@:@<@          ",
"            [@}@|@1@1@2@3@4@5@) ) 5@4@6@7@~@~@8@8@9@            ",
"              0@0@0@0@}@}@}@}@}@}@}@}@}@}@}@|@1@a@              ",
"                  b@b@b@b@c@c@c@c@c@c@c@d@d@0@                  ",
"                        e@e@e@e@e@b@b@b@                        "};
