/* XPM */
static char * E:\GitHub\PWRB\share\pixmaps\pwrb16_xpm[] = {
"16 16 133 2",
"  	c None",
". 	c #FA43F9",
"+ 	c #FB43FA",
"@ 	c #FB44FA",
"# 	c #F842F7",
"$ 	c #F842F8",
"% 	c #F958F8",
"& 	c #FBA1FB",
"* 	c #FCB6FC",
"= 	c #FA58F9",
"- 	c #FA42F9",
"; 	c #F943F9",
"> 	c #F53FF5",
", 	c #F640F6",
"' 	c #FBBCFB",
") 	c #FDE2FD",
"! 	c #FABCFA",
"~ 	c #FAB2FA",
"{ 	c #F741F7",
"] 	c #F23FF3",
"^ 	c #F23EF3",
"/ 	c #FBD3FB",
"( 	c #F9BCF9",
"_ 	c #FACCFB",
": 	c #FFFBFF",
"< 	c #FFFFFF",
"[ 	c #FBCCFB",
"} 	c #F9BCFA",
"| 	c #FCD3FC",
"1 	c #F540F5",
"2 	c #EF3BF1",
"3 	c #F7BBF8",
"4 	c #F7BCF8",
"5 	c #FCE8FD",
"6 	c #FDE8FD",
"7 	c #F8BCF9",
"8 	c #F23DF3",
"9 	c #EC39EE",
"0 	c #ED52F0",
"a 	c #FBE2FB",
"b 	c #F8CBF9",
"c 	c #F9CCF9",
"d 	c #FBE2FC",
"e 	c #F053F2",
"f 	c #E837EC",
"g 	c #F09FF2",
"h 	c #F4BAF5",
"i 	c #FEF2FD",
"j 	c #FFEDFD",
"k 	c #FFF3FE",
"l 	c #FFF2FD",
"m 	c #FFF5FE",
"n 	c #FFF3FD",
"o 	c #FFE9FC",
"p 	c #FEFBFE",
"q 	c #F5BBF6",
"r 	c #F29FF4",
"s 	c #E535E9",
"t 	c #F1B4F3",
"u 	c #F1B0F3",
"v 	c #FFC9F9",
"w 	c #FFB4F7",
"x 	c #FFC8F9",
"y 	c #FFC0F8",
"z 	c #FFCAF9",
"A 	c #FFE4FC",
"B 	c #FFBAF7",
"C 	c #FFC1F8",
"D 	c #FFDAFA",
"E 	c #F2B0F4",
"F 	c #F3B4F5",
"G 	c #E937EC",
"H 	c #E232E7",
"I 	c #F0B4F2",
"J 	c #EFB0F2",
"K 	c #FFCFF9",
"L 	c #FFC7F9",
"M 	c #FFF8FE",
"N 	c #FF89F3",
"O 	c #FF8AF3",
"P 	c #FFF6FE",
"Q 	c #FF9DF5",
"R 	c #FFC3F8",
"S 	c #FFA5F5",
"T 	c #F0B0F3",
"U 	c #DF30E4",
"V 	c #EA9EEE",
"W 	c #EFBAF2",
"X 	c #FFFCFF",
"Y 	c #FEFAFE",
"Z 	c #F0BAF3",
"` 	c #EC9EEF",
" .	c #DC2EE2",
"..	c #DD4BE4",
"+.	c #F7E1F8",
"@.	c #F1CAF4",
"#.	c #F2CBF4",
"$.	c #F8E1F9",
"%.	c #E04DE6",
"&.	c #D82CE0",
"*.	c #ECB9EF",
"=.	c #ECBAF0",
"-.	c #F8E7F9",
";.	c #F8E7FA",
">.	c #EDBAF0",
",.	c #DB2EE2",
"'.	c #D62CDE",
").	c #D62ADE",
"!.	c #F1D1F4",
"~.	c #EBBAEF",
"{.	c #EFCAF2",
"].	c #ECBAEF",
"^.	c #F2D1F4",
"/.	c #D82CDF",
"(.	c #D92EE0",
"_.	c #D329DC",
":.	c #D328DC",
"<.	c #E9B9ED",
"[.	c #F6E1F7",
"}.	c #EAB9EE",
"|.	c #E7AEEC",
"1.	c #D52ADD",
"2.	c #D129DA",
"3.	c #D127DA",
"4.	c #D448DC",
"5.	c #E19CE7",
"6.	c #E7B2EB",
"7.	c #E7B2EC",
"8.	c #D448DD",
"9.	c #D228DB",
"0.	c #D32ADC",
"a.	c #CF26D9",
"b.	c #D026D9",
"          . + + @ @ +           ",
"      # $ % & * * & = - ;       ",
"    > , ' ) ! ~ ~ ! ) ' { {     ",
"  ] ^ / ( _ : < < : [ } | > 1   ",
"  2 3 4 5 < < < < < < 6 7 7 8   ",
"9 0 a b < < < < < < < < c d e 2 ",
"f g h i j k l m n o : o p q r 9 ",
"s t u m v w x y z A B C D E F G ",
"H I J K L M N O P Q R S R T t s ",
"U V W i X < n P < P k o Y Z ` H ",
" ...+.@.< < < < < < < < #.$.%.U ",
"  &.*.=.-.< < < < < < ;.>.>.,.  ",
"  '.).!.~.{.p < < p {.].^./.(.  ",
"    _.:.<.[.}.|.|.}.[.}.1.1.    ",
"      2.3.4.5.6.7.5.8.9.0.      ",
"          a.a.a.a.a.b.          "};
