/* XPM */
static char * E:\GitHub\PWRB\share\pixmaps\pwrb64_xpm[] = {
"64 64 618 2",
"  	c None",
". 	c #FC44FA",
"+ 	c #FC44FB",
"@ 	c #FB43FA",
"# 	c #FB44FA",
"$ 	c #FB43F9",
"% 	c #FA42F9",
"& 	c #FA43F9",
"* 	c #F942F8",
"= 	c #F942F9",
"- 	c #F842F8",
"; 	c #F946F9",
"> 	c #F94AF9",
", 	c #F842F7",
"' 	c #F841F8",
") 	c #F845F8",
"! 	c #FA82F9",
"~ 	c #FBB2FB",
"{ 	c #FDD1FC",
"] 	c #FEE4FD",
"^ 	c #FEF1FE",
"/ 	c #FFF9FF",
"( 	c #FFFDFF",
"_ 	c #FCB2FB",
": 	c #F945F8",
"< 	c #F943F9",
"[ 	c #F746F7",
"} 	c #F741F7",
"| 	c #F841F7",
"1 	c #F989F9",
"2 	c #FCCBFC",
"3 	c #FEF3FE",
"4 	c #FFFFFF",
"5 	c #FDCBFC",
"6 	c #FA89FA",
"7 	c #F943F8",
"8 	c #F947F8",
"9 	c #F644F6",
"0 	c #F740F6",
"a 	c #F740F7",
"b 	c #F745F7",
"c 	c #FAA1FA",
"d 	c #FDE7FD",
"e 	c #FFFEFF",
"f 	c #FEF5FE",
"g 	c #FEE7FE",
"h 	c #F643F6",
"i 	c #F640F6",
"j 	c #F88EF8",
"k 	c #FEECFE",
"l 	c #FBC9FB",
"m 	c #F9A5F9",
"n 	c #F87DF8",
"o 	c #F757F7",
"p 	c #F744F7",
"q 	c #F858F8",
"r 	c #F87EF8",
"s 	c #FAA6FA",
"t 	c #FCC9FC",
"u 	c #FEE7FD",
"v 	c #F98EF9",
"w 	c #F844F7",
"x 	c #F542F5",
"y 	c #F53FF5",
"z 	c #F53FF6",
"A 	c #F654F6",
"B 	c #FBCCFB",
"C 	c #FBC3FB",
"D 	c #F77AF8",
"E 	c #F641F6",
"F 	c #F87AF8",
"G 	c #FCCCFC",
"H 	c #F755F7",
"I 	c #F444F5",
"J 	c #F43FF5",
"K 	c #F67BF7",
"L 	c #FDECFD",
"M 	c #F9B3F9",
"N 	c #F551F5",
"O 	c #F543F5",
"P 	c #F783F7",
"Q 	c #FAB5FA",
"R 	c #FBD2FC",
"S 	c #FDE4FD",
"T 	c #FEF0FE",
"U 	c #FCD2FC",
"V 	c #F883F8",
"W 	c #F652F6",
"X 	c #FAB4FA",
"Y 	c #F87BF8",
"Z 	c #F645F6",
"` 	c #F33EF4",
" .	c #F43EF4",
"..	c #F793F7",
"+.	c #FEF8FE",
"@.	c #FBCBFB",
"#.	c #F55BF5",
"$.	c #F675F6",
"%.	c #FAC4FA",
"&.	c #FEF2FE",
"*.	c #FAC4FB",
"=.	c #F675F7",
"-.	c #F65CF6",
";.	c #F894F8",
">.	c #F33FF4",
",.	c #F79BF7",
"'.	c #FFFBFF",
").	c #F795F7",
"!.	c #F573F6",
"~.	c #FBD3FB",
"{.	c #FCD4FC",
"].	c #F674F6",
"^.	c #F896F8",
"/.	c #F89BF8",
"(.	c #F540F6",
"_.	c #F23DF3",
":.	c #F693F6",
"<.	c #FDEAFD",
"[.	c #F46EF5",
"}.	c #F347F4",
"|.	c #F9BBFA",
"1.	c #FABBFA",
"2.	c #F447F5",
"3.	c #F56FF6",
"4.	c #F793F8",
"5.	c #F13DF2",
"6.	c #F13DF3",
"7.	c #F47AF5",
"8.	c #FCE6FD",
"9.	c #F35CF4",
"0.	c #F368F4",
"a.	c #FCE3FC",
"b.	c #FCE3FD",
"c.	c #F468F5",
"d.	c #F45DF5",
"e.	c #FDE6FD",
"f.	c #F67AF6",
"g.	c #F43FF4",
"h.	c #F03CF2",
"i.	c #F13CF2",
"j.	c #F152F3",
"k.	c #F25CF3",
"l.	c #F37CF5",
"m.	c #F57CF6",
"n.	c #F45DF4",
"o.	c #F453F4",
"p.	c #EF3BF1",
"q.	c #F03CF1",
"r.	c #F9CBFA",
"s.	c #F26DF3",
"t.	c #F37BF4",
"u.	c #F47CF5",
"v.	c #FACBFA",
"w.	c #F23EF3",
"x.	c #EF3BF0",
"y.	c #F38CF5",
"z.	c #F495F5",
"A.	c #F167F2",
"B.	c #FDF2FE",
"C.	c #F267F4",
"D.	c #F595F6",
"E.	c #F58DF6",
"F.	c #EE3BF0",
"G.	c #EE3FF0",
"H.	c #FCE7FC",
"I.	c #F8CAF9",
"J.	c #EF44F1",
"K.	c #FBE3FC",
"L.	c #F145F2",
"M.	c #F9CAFA",
"N.	c #FCE7FD",
"O.	c #F141F2",
"P.	c #ED3AEF",
"Q.	c #ED3AF0",
"R.	c #F4A0F5",
"S.	c #EF58F1",
"T.	c #EE3AF0",
"U.	c #F6BBF7",
"V.	c #F7BBF8",
"W.	c #F159F2",
"X.	c #F5A0F6",
"Y.	c #EC39EF",
"Z.	c #EC3AEF",
"`.	c #ED3BEF",
" +	c #F5B3F6",
".+	c #F072F1",
"++	c #FEFBFF",
"@+	c #F172F3",
"#+	c #F6B3F7",
"$+	c #EF3CF1",
"%+	c #EB39EE",
"&+	c #EC39EE",
"*+	c #F086F2",
"=+	c #FDF5FE",
"-+	c #ED4DEF",
";+	c #F9D3FA",
">+	c #EF4EF1",
",+	c #F287F4",
"'+	c #EA38ED",
")+	c #EB38ED",
"!+	c #EB38EE",
"~+	c #F7CAF8",
"{+	c #F6C2F7",
"]+	c #EE72F1",
"^+	c #F073F2",
"/+	c #F7C2F8",
"(+	c #EA3CED",
"_+	c #FDF3FD",
":+	c #EE77F0",
"<+	c #F6C3F7",
"[+	c #F7C4F8",
"}+	c #F078F2",
"|+	c #FDF3FE",
"1+	c #ED3EEF",
"2+	c #E937EC",
"3+	c #ED7FF0",
"4+	c #FCECFC",
"5+	c #FDF1FD",
"6+	c #EC3EEE",
"7+	c #EC3AEE",
"8+	c #FCECFD",
"9+	c #F07FF2",
"0+	c #E836EB",
"a+	c #E837EC",
"b+	c #F2B0F4",
"c+	c #F6C8F7",
"d+	c #ED80F0",
"e+	c #EF81F2",
"f+	c #F7C8F8",
"g+	c #F4B0F5",
"h+	c #E736EB",
"i+	c #F7CFF8",
"j+	c #F0A3F3",
"k+	c #F2B3F4",
"l+	c #FFEAFC",
"m+	c #FFB7F7",
"n+	c #FFBDF8",
"o+	c #FFE1FB",
"p+	c #FFEEFD",
"q+	c #FFD2FA",
"r+	c #FFF3FE",
"s+	c #FFCBF9",
"t+	c #FFF0FD",
"u+	c #FFCFF9",
"v+	c #FFF6FE",
"w+	c #FFC8F9",
"x+	c #FFF5FE",
"y+	c #FFBBF7",
"z+	c #FFD9FA",
"A+	c #FFE5FC",
"B+	c #FFC3F8",
"C+	c #FFF1FD",
"D+	c #F4B4F5",
"E+	c #F2A4F4",
"F+	c #F8D0F9",
"G+	c #E635EA",
"H+	c #E736EA",
"I+	c #FAE3FB",
"J+	c #EB7AEF",
"K+	c #F7D1F8",
"L+	c #FFD8FA",
"M+	c #FF44F0",
"N+	c #FF45F0",
"O+	c #FF63F1",
"P+	c #FF5FF1",
"Q+	c #FFFAFE",
"R+	c #FF7BF2",
"S+	c #FF4CF0",
"T+	c #FF9CF5",
"U+	c #FFD1FA",
"V+	c #FFC6F8",
"W+	c #FFC1F8",
"X+	c #FFECFD",
"Y+	c #FFA2F5",
"Z+	c #FFCDF9",
"`+	c #FF5DF1",
" @	c #FFEDFD",
".@	c #F7D1F9",
"+@	c #E937ED",
"@@	c #EE7AF0",
"#@	c #FAE4FB",
"$@	c #E535EA",
"%@	c #FCF1FD",
"&@	c #E850EB",
"*@	c #FFEFFD",
"=@	c #FFE3FC",
"-@	c #FF6EF2",
";@	c #FF4DF0",
">@	c #FFB5F7",
",@	c #FF68F1",
"'@	c #FF7BF3",
")@	c #FFF3FD",
"!@	c #FFFCFF",
"~@	c #FFE8FC",
"{@	c #FF85F3",
"]@	c #FFF9FE",
"^@	c #EA51ED",
"/@	c #E534E9",
"(@	c #E539E9",
"_@	c #FEF9FE",
":@	c #E639EA",
"<@	c #E535E9",
"[@	c #FCEFFD",
"}@	c #FFABF6",
"|@	c #FFE9FC",
"1@	c #FFEBFD",
"2@	c #FF46F0",
"3@	c #FF8EF4",
"4@	c #FF5EF1",
"5@	c #FFBDF7",
"6@	c #FFE2FC",
"7@	c #FF9EF5",
"8@	c #FFC4F8",
"9@	c #FFD4FA",
"0@	c #FFD6FA",
"a@	c #E83BEC",
"b@	c #E434E8",
"c@	c #E434E9",
"d@	c #E53EE9",
"e@	c #FDF5FD",
"f@	c #E435E9",
"g@	c #FFF7FE",
"h@	c #FFE6FC",
"i@	c #FF65F1",
"j@	c #FF53F1",
"k@	c #FFF8FE",
"l@	c #FFECFC",
"m@	c #FF6DF2",
"n@	c #FFC9F9",
"o@	c #FFA6F6",
"p@	c #FFDCFB",
"q@	c #FFDFFB",
"r@	c #FF7AF2",
"s@	c #FF4FF0",
"t@	c #E737EB",
"u@	c #E840EC",
"v@	c #E333E8",
"w@	c #E43EE9",
"x@	c #FF48F0",
"y@	c #FFB6F7",
"z@	c #FFDBFB",
"A@	c #FF80F3",
"B@	c #FF70F2",
"C@	c #FFAFF6",
"D@	c #FF8CF4",
"E@	c #FFA4F5",
"F@	c #FF92F4",
"G@	c #FFA0F5",
"H@	c #E636EA",
"I@	c #E73FEB",
"J@	c #E233E7",
"K@	c #E338E8",
"L@	c #FCEFFC",
"M@	c #FFC5F8",
"N@	c #FFCAF9",
"O@	c #FFEBFC",
"P@	c #FF60F1",
"Q@	c #FF64F1",
"R@	c #FF93F4",
"S@	c #FF77F2",
"T@	c #FFBFF8",
"U@	c #FF8DF3",
"V@	c #FFC0F8",
"W@	c #FF75F2",
"X@	c #E63AEA",
"Y@	c #E132E7",
"Z@	c #E232E7",
"`@	c #FCF1FC",
" #	c #E44EE9",
".#	c #F9E3FA",
"+#	c #FFB3F7",
"@#	c #FFDAFB",
"##	c #FF4AF0",
"$#	c #FFB2F6",
"%#	c #FFF4FE",
"&#	c #FF6AF2",
"*#	c #E64FEA",
"=#	c #E132E6",
"-#	c #E778EB",
";#	c #F5D1F6",
">#	c #FF6BF2",
",#	c #FF9BF4",
"'#	c #FF66F1",
")#	c #F5D1F7",
"!#	c #E979EC",
"~#	c #E031E5",
"{#	c #E031E6",
"]#	c #F4CFF6",
"^#	c #ECA2EF",
"/#	c #EFB2F1",
"(#	c #FFD5FA",
"_#	c #FFE4FC",
":#	c #FFB9F7",
"<#	c #F0B3F2",
"[#	c #EDA3F0",
"}#	c #F5CFF7",
"|#	c #DF30E5",
"1#	c #DF31E5",
"2#	c #EDAFF0",
"3#	c #F2C7F4",
"4#	c #E67EEB",
"5#	c #E87FEC",
"6#	c #F3C8F5",
"7#	c #EFAFF2",
"8#	c #E333E7",
"9#	c #DE30E4",
"0#	c #E57CEA",
"a#	c #FAECFB",
"b#	c #DF36E5",
"c#	c #E138E6",
"d#	c #E133E6",
"e#	c #FBECFB",
"f#	c #E77DEB",
"g#	c #DD2FE4",
"h#	c #DE2FE4",
"i#	c #DE34E4",
"j#	c #FCF2FC",
"k#	c #E474E9",
"l#	c #F1C2F3",
"m#	c #F2C3F4",
"n#	c #E675EA",
"o#	c #FCF3FD",
"p#	c #E136E6",
"q#	c #DD2FE3",
"r#	c #F2C9F4",
"s#	c #F0C1F3",
"t#	c #E26EE7",
"u#	c #E46FE9",
"v#	c #F1C1F3",
"w#	c #F3CAF5",
"x#	c #DC2EE2",
"y#	c #E483E9",
"z#	c #FCF5FD",
"A#	c #DE45E4",
"B#	c #DC2FE3",
"C#	c #F4D2F6",
"D#	c #DF30E4",
"E#	c #E046E5",
"F#	c #E684EB",
"G#	c #DB2EE2",
"H#	c #DB2FE2",
"I#	c #F8E6FA",
"J#	c #ECB1EF",
"K#	c #E16DE6",
"L#	c #FEFBFE",
"M#	c #E36DE8",
"N#	c #EDB1F0",
"O#	c #F9E6FA",
"P#	c #DE31E4",
"Q#	c #DA2DE1",
"R#	c #DB2DE1",
"S#	c #E89DEC",
"T#	c #DD51E4",
"U#	c #EDB9F1",
"V#	c #EEB9F1",
"W#	c #DF52E5",
"X#	c #E99DED",
"Y#	c #DA33E1",
"Z#	c #F1C9F3",
"`#	c #DB39E2",
" $	c #F7E2F9",
".$	c #DD3AE3",
"+$	c #F1C9F4",
"@$	c #F9E7FA",
"#$	c #DD34E3",
"$$	c #D92CE0",
"%$	c #E388E8",
"&$	c #E591EA",
"*$	c #D92DE1",
"=$	c #DE60E4",
"-$	c #FBF1FC",
";$	c #DF61E5",
">$	c #E691EB",
",$	c #E589EA",
"'$	c #D82CE0",
")$	c #F0CAF3",
"!$	c #DE67E4",
"~$	c #E076E6",
"{$	c #E176E7",
"]$	c #DF67E5",
"^$	c #F1CAF4",
"/$	c #D72BDF",
"($	c #D82BDF",
"_$	c #DA48E1",
":$	c #F9EBFA",
"<$	c #F9EAFA",
"[$	c #DB53E2",
"}$	c #D82CDF",
"|$	c #DF76E5",
"1$	c #DD53E3",
"2$	c #FAEBFB",
"3$	c #DC49E3",
"4$	c #D72BDE",
"5$	c #DE74E4",
"6$	c #FDF7FD",
"7$	c #F7E5F9",
"8$	c #DA52E2",
"9$	c #DC60E3",
"0$	c #F6E2F8",
"a$	c #F7E2F8",
"b$	c #DD60E3",
"c$	c #DC53E2",
"d$	c #F8E5F9",
"e$	c #E074E5",
"f$	c #D92DE0",
"g$	c #D62ADE",
"h$	c #D62BDE",
"i$	c #E28EE8",
"j$	c #DC67E3",
"k$	c #D737DF",
"l$	c #EBB9EF",
"m$	c #ECB9EF",
"n$	c #D938E0",
"o$	c #DD67E4",
"p$	c #E38FE9",
"q$	c #D52BDD",
"r$	c #D52ADD",
"s$	c #D52ADE",
"t$	c #E397E9",
"u$	c #FCF5FC",
"v$	c #E391E8",
"w$	c #DC6CE3",
"x$	c #F2D2F4",
"y$	c #DD6CE4",
"z$	c #E391E9",
"A$	c #E597E9",
"B$	c #D82DDF",
"C$	c #D529DD",
"D$	c #E18EE7",
"E$	c #EFC9F2",
"F$	c #D84FE0",
"G$	c #DC6DE3",
"H$	c #EDC2F0",
"I$	c #EEC2F1",
"J$	c #DD6DE3",
"K$	c #D950E0",
"L$	c #F0C9F2",
"M$	c #D530DD",
"N$	c #D429DC",
"O$	c #D429DD",
"P$	c #DC73E3",
"Q$	c #E9B0ED",
"R$	c #D742DE",
"S$	c #DE7CE4",
"T$	c #E9B2ED",
"U$	c #F1D0F3",
"V$	c #F7E3F8",
"W$	c #FAEFFB",
"X$	c #DE7DE5",
"Y$	c #D630DE",
"Z$	c #D742DF",
"`$	c #DD74E4",
" %	c #D731DE",
".%	c #D42EDC",
"+%	c #D329DC",
"@%	c #D646DE",
"#%	c #FCF4FC",
"$%	c #ECC0F0",
"%%	c #DC72E3",
"&%	c #D42ADD",
"*%	c #DD72E3",
"=%	c #EDC0F0",
"-%	c #D747DF",
";%	c #D62FDE",
">%	c #D32CDC",
",%	c #D328DC",
"'%	c #DF87E5",
")%	c #F7E6F9",
"!%	c #EEC7F1",
"~%	c #E5A1E9",
"{%	c #DC76E3",
"]%	c #D749DE",
"^%	c #D42FDC",
"/%	c #D42ADC",
"(%	c #D52FDD",
"_%	c #D749DF",
":%	c #E5A1EA",
"<%	c #E088E6",
"[%	c #D52EDD",
"}%	c #D22DDB",
"|%	c #D228DB",
"1%	c #D32EDC",
"2%	c #E39CE8",
"3%	c #F7E6F8",
"4%	c #FDF9FE",
"5%	c #D42EDD",
"6%	c #D22EDB",
"7%	c #D227DB",
"8%	c #D229DB",
"9%	c #DD82E4",
"0%	c #EEC9F1",
"a%	c #FBF2FC",
"b%	c #DE82E4",
"c%	c #D430DD",
"d%	c #D128DA",
"e%	c #D127DA",
"f%	c #D127DB",
"g%	c #D22CDB",
"h%	c #DB7AE2",
"i%	c #E6AEEB",
"j%	c #EFCEF2",
"k%	c #F6E3F7",
"l%	c #FAF0FB",
"m%	c #FDF8FE",
"n%	c #FEFCFF",
"o%	c #E7AEEB",
"p%	c #DC7AE3",
"q%	c #D32DDB",
"r%	c #D328DB",
"s%	c #D329DB",
"t%	c #D22DDA",
"u%	c #D233DB",
"v%	c #D026D9",
"w%	c #D026DA",
"x%	c #D027DA",
"y%	c #CF26D9",
"z%	c #CF25D8",
"A%	c #CE25D8",
"                                                    . . . . + + + + + + + +                                                     ",
"                                            @ @ # # # # # # . . . . . . . . . . . .                                             ",
"                                        $ @ @ @ @ @ @ @ @ @ @ @ @ @ @ @ @ @ @ # # # # #                                         ",
"                                  % & & & & & & & & & & & & & & $ $ @ @ @ @ @ @ @ @ @ @ @ @ @                                   ",
"                                * = = = = = % % % % % % % & & & & & & & & & & & & & & & & & & &                                 ",
"                            - * * * * * * * * * * * * * * * ; > > ; = % % % % % % % % & & & & & & &                             ",
"                          , ' ' ' ' ' ' ' ' ' - ) ! ~ { ] ^ / ( ( / ^ ] { _ ! : * * * * = = = = = = <                           ",
"                      [ } } } } } } | | | , 1 2 3 4 4 4 4 4 4 4 4 4 4 4 4 4 4 3 5 6 7 * * * * * * * * * 8                       ",
"                    9 0 0 a a a a a } b c d 4 4 4 4 4 4 4 e / f f / e 4 4 4 4 4 4 4 g c ) ' ' ' ' ' ' ' - )                     ",
"                  h i i i i i i i i j d 4 4 4 4 4 k l m n o p } } b q r s t k 4 4 4 4 4 u v } } | | | | | | w                   ",
"                x y y y y y z z A B e 4 4 4 f C D E i i i i i E E i i i i i E F C f 4 4 4 e G H } } } } } } } p                 ",
"              I J J J J y y y K L 4 4 4 f M N y y O P Q R S T f f T S U Q V 9 i i W X f 4 4 4 k Y i i i i 0 0 a Z               ",
"              `  . . . . . ...+.4 4 e @.#.J J $.%.&.4 4 4 4 4 4 4 4 4 4 4 4 &.*.=.y z -.@.e 4 4 +.;.i i i i i i i               ",
"            >.` ` ` ` ` ` ,.'.4 4 f ).` ` !.~.( 4 4 4 4 4 4 4 4 4 4 4 4 4 4 4 4 ( {.].y y ^.f 4 4 './.y y y y y z (.            ",
"          _._._._._._._.:.'.4 4 <.[.` }.|.'.4 4 4 4 4 4 4 4 4 4 4 4 4 4 4 4 4 4 4 4 '.1.2.J 3.<.4 4 '.4.J J J J y y J           ",
"          5.5.6.6.6.6.7.+.4 4 8.9._.0.a.4 4 4 4 4 4 4 4 4 4 4 4 4 4 4 4 4 4 4 4 4 4 4 4 b.c.` d.e.4 4 +.f. . . . .g.g.          ",
"        h.h.h.i.i.i.j.L 4 4 <.k.5.l.&.4 4 4 4 4 4 4 4 4 4 4 4 4 4 4 4 4 4 4 4 4 4 4 4 4 4 &.m.` n.<.4 4 L o.` ` ` ` ` `         ",
"      p.q.q.q.q.q.q.r.4 4 f s.h.t.f 4 4 4 4 4 4 4 4 4 4 4 4 4 4 4 4 4 4 4 4 4 4 4 4 4 4 4 4 f u._.[.f 4 4 v._._._.w.w.w.w.      ",
"      x.p.p.p.p.p.y.e 4 e z.p.A.B.4 4 4 4 4 4 4 4 4 4 4 4 4 4 4 4 4 4 4 4 4 4 4 4 4 4 4 4 4 4 &.C.6.D.e 4 e E._._._._._._.      ",
"      F.F.F.F.F.G.H.4 4 I.x.J.K.4 4 4 4 4 4 4 4 4 4 4 4 4 4 4 4 4 4 4 4 4 4 4 4 4 4 4 4 4 4 4 4 a.L.i.M.4 4 N.O.i.5.5.5.5.      ",
"    P.P.P.Q.Q.Q.R.4 4 f S.T.U.4 4 4 4 4 4 4 4 4 4 4 4 4 4 4 4 4 4 4 4 4 4 4 4 4 4 4 4 4 4 4 4 4 4 V.q.W.f 4 4 X.h.h.h.h.h.h.    ",
"    Y.Y.Y.Z.P.`.H.4 4  +P..+++4 4 4 4 4 4 4 4 4 4 4 4 4 4 4 4 4 4 4 4 4 4 4 4 4 4 4 4 4 4 4 4 4 4 '.@+p.#+4 4 H.$+p.p.$+q.q.    ",
"  %+%+&+&+&+&+*+4 4 =+-+Y.;+4 4 4 4 4 4 4 4 4 4 4 4 4 4 4 4 4 4 4 4 4 4 4 4 4 4 4 4 4 4 4 4 4 4 4 4 ;+F.>+f 4 4 ,+x.x.p.p.p.p.  ",
"  '+)+!+!+!+!+~+4 4 {+%+]+( 4 4 4 4 4 4 4 4 4 4 4 4 4 4 4 4 4 4 4 4 4 4 4 4 4 4 4 4 4 4 4 4 4 4 4 4 ( ^+Q./+4 4 I.T.T.T.T.F.T.  ",
"  '+'+'+'+'+(+_+4 4 :+'+<+4 4 4 4 4 4 4 4 4 4 4 4 4 4 4 4 4 4 4 4 4 4 4 4 4 4 4 4 4 4 4 4 4 4 4 4 4 4 [+P.}+4 4 |+1+P.P.P.P.P.  ",
"  2+2+2+2+2+3+4 4 4+'+(+5+4 4 4 4 4 4 4 4 4 4 4 4 4 4 4 4 4 4 4 4 4 4 4 4 4 4 4 4 4 4 4 4 4 4 4 4 4 4 5+6+7+8+4 4 9+Y.Y.Y.Y.Z.  ",
"0+a+a+a+a+a+b+4 4 c+2+d+4 4 4 4 4 4 4 4 4 4 4 4 4 4 4 4 4 4 4 4 4 4 4 4 4 4 4 4 4 4 4 4 4 4 4 4 4 4 4 4 e+%+f+4 4 g+%+%+&+&+&+%+",
"h+h+h+h+h+0+i+4 4 j+0+k+4 4 l+m+m+m+n+o+4 p+m+q+4 r+m+s+t+m+u+4 v+m+w+x+m+m+m+y+z+e 4 A+m+m+m+B+C+4 4 4 D+'+E+4 4 F+)+)+!+!+!+!+",
"G+G+H+H+H+h+I+4 4 J+h+K+4 4 L+M+M+M+M+N+n+'.O+P+Q+e R+S+T+M+U+4 V+M+W+X+M+M+M+M+M+Y+4 Z+M+M+M+M+`+ @4 4 .@+@@@4 4 #@'+'+'+'+'+'+",
"$@G+G+G+G+G+%@4 e &@G+I+4 4 Q+*@*@*@=@-@;@v+>@M+q+4 s+M+M+,@'.e '@S+)@!@*@*@*@~@{@M+A+]@*@*@*@w+M+m+4 4 I+2+^@e 4 5+2+2+2+2+2+2+",
"/@/@/@/@/@(@_@4 _@:@<@[@4 4 4 4 4 4 4 }@M+|@1@2@3@4 ]@4@M+5@4 6@M+7@4 4 4 4 4 4 8@M+9@e ( ( ( 0@M+m+4 4 [@0+a@_@4 _@a@a+a+a+a+a+",
"b@c@c@c@c@d@( 4 e@f@<@e@4 4 g@h@h@h@z+i@j@k@4 3@2@l@( m@M+n@4 o@M+p@4 '.h@h@h@q@r@N+~@Z+N+N+N+M+s@p+4 4 =+t@t@=+4 ( u@h+h+h+0+h+",
"v@v@v@v@v@w@( 4 e@b@b@e@4 4 L+M+M+M+M+x@w+4 4 q+M+y@z@M+M+A@v+j@B@( 4 X+M+M+M+M+M+C@4 Z+M+D@E@F@M+G@4 4 =+H@H@=+4 ( I@H+H+H+h+h+",
"J@J@J@J@J@K@_@4 _@K@v@L@4 4 L+M+7@M@N@O@4 4 4 Q+P@Q@R@M+S@M+Y+M+T@4 4 X+M+U@V@S+W@( 4 Z+M+0@4 4 D@2@x+4 L@<@X@_@4 _@:@G+G+G+G+G+",
"Y@Y@Z@Z@Z@Z@`@4 e  #Z@.#4 4 L+M+s+4 4 4 4 4 4 4 +#M+M+A@@#M+M+##C+4 4 X+M+$#4 +#M+Z+4 Z+M+Z+%#~@&#s@Q+4 .#c@*#e 4 %@/@/@/@/@/@<@",
"=#=#=#=#=#=#.#4 4 -#=#;#4 4 L+M+s+4 4 4 4 4 4 4 l+N+M+w+( >#M+,#4 4 4 X+M+$#4 g@O+'#g@Z+M+M+M+M+M+y@4 4 )#b@!#4 4 .#b@b@c@c@c@c@",
"~#~#~#~#~#{#]#4 4 ^#{#/#4 4 l+>@=@4 4 4 4 4 4 4 4 W+>@v+4 (#>@A+4 4 4 x+>@L+4 4 z@>@=@_#>@>@>@:#z@4 4 4 <#v@[#4 4 }#v@v@v@v@v@v@",
"|#|#|#1#1#1#2#4 4 3#~#4#4 4 4 4 4 4 4 4 4 4 4 4 4 4 4 4 4 4 4 4 4 4 4 4 4 4 4 4 4 4 4 4 4 4 4 4 4 4 4 4 5#Z@6#4 4 7#J@J@J@J@8#8#",
"  9#9#9#9#9#0#4 4 a#1#b#`@4 4 4 4 4 4 4 4 4 4 4 4 4 4 4 4 4 4 4 4 4 4 4 4 4 4 4 4 4 4 4 4 4 4 4 4 4 4 `@c#d#e#4 4 f#Y@Y@Z@Z@Z@  ",
"  g#g#g#h#h#i#j#4 4 k#9#l#4 4 4 4 4 4 4 4 4 4 4 4 4 4 4 4 4 4 4 4 4 4 4 4 4 4 4 4 4 4 4 4 4 4 4 4 4 4 m#{#n#4 4 o#p#=#=#=#=#=#  ",
"  q#q#q#q#q#q#r#4 4 s#q#t#( 4 4 4 4 4 4 4 4 4 4 4 4 4 4 4 4 4 4 4 4 4 4 4 4 4 4 4 4 4 4 4 4 4 4 4 4 ( u#1#v#4 4 w#~#~#~#~#~#~#  ",
"  x#x#x#x#x#x#y#4 4 z#A#B#C#4 4 4 4 4 4 4 4 4 4 4 4 4 4 4 4 4 4 4 4 4 4 4 4 4 4 4 4 4 4 4 4 4 4 4 4 C#D#E#e@4 4 F#|#|#|#|#1#1#  ",
"    G#G#G#G#G#H#I#4 4 J#x#K#L#4 4 4 4 4 4 4 4 4 4 4 4 4 4 4 4 4 4 4 4 4 4 4 4 4 4 4 4 4 4 4 4 4 4 L#M#9#N#4 4 O#P#9#9#9#9#9#    ",
"    Q#Q#Q#Q#R#R#S#4 4 z#T#G#U#4 4 4 4 4 4 4 4 4 4 4 4 4 4 4 4 4 4 4 4 4 4 4 4 4 4 4 4 4 4 4 4 4 4 V#q#W#z#4 4 X#q#q#g#g#g#h#    ",
"      Q#Q#Q#Q#Q#Y#I#4 4 Z#Q#`# $4 4 4 4 4 4 4 4 4 4 4 4 4 4 4 4 4 4 4 4 4 4 4 4 4 4 4 4 4 4 4 4  $.$B#+$4 4 @$#$B#q#q#q#q#      ",
"      $$$$$$$$$$$$%$e 4 e &$*$=$-$4 4 4 4 4 4 4 4 4 4 4 4 4 4 4 4 4 4 4 4 4 4 4 4 4 4 4 4 4 4 -$;$G#>$e 4 e ,$x#x#x#x#x#x#      ",
"      '$'$'$'$'$'$'$)$4 4 z#!$$$~$z#4 4 4 4 4 4 4 4 4 4 4 4 4 4 4 4 4 4 4 4 4 4 4 4 4 4 4 4 z#{$Q#]$z#4 4 ^$G#G#G#G#G#G#G#      ",
"        /$/$/$($($($_$:$4 4 <$[$}$|$-$4 4 4 4 4 4 4 4 4 4 4 4 4 4 4 4 4 4 4 4 4 4 4 4 4 4 -$~$Q#1$<$4 4 2$3$Q#Q#Q#Q#Q#Q#        ",
"          4$4$/$/$/$/$5$6$4 4 7$8$/$9$0$4 4 4 4 4 4 4 4 4 4 4 4 4 4 4 4 4 4 4 4 4 4 4 4 a$b$$$c$d$4 4 6$e$$$f$f$f$f$*$          ",
"          g$g$g$g$g$g$h$i$L#4 4 <$j$4$k$l$L#4 4 4 4 4 4 4 4 4 4 4 4 4 4 4 4 4 4 4 4 L#m$n$}$o$<$4 4 L#p$'$'$'$'$$$$$$$          ",
"            q$r$s$s$g$g$g$t$L#4 4 u$v$g$g$w$x$( 4 4 4 4 4 4 4 4 4 4 4 4 4 4 4 4 ( x$y$/$/$z$z#4 4 L#A$($($}$}$}$}$B$            ",
"              C$r$r$r$r$r$r$D$6$4 4 e E$F$r$s$G$H$-$4 4 4 4 4 4 4 4 4 4 4 4 -$I$J$h$h$K$L$e 4 4 6$i$/$/$/$/$/$/$/$              ",
"              M$N$O$O$O$O$O$O$P$:$4 4 4 u$Q$R$r$r$M$S$T$U$V$W$z#z#W$V$U$T$X$Y$g$g$Z$Q$u$4 4 4 :$`$g$g$g$g$h$h$h$ %              ",
"                .%+%+%N$N$N$N$N$@%E$e 4 4 4 #%$%%%&%O$O$O$O$O$&%r$C$C$C$C$r$r$*%=%#%4 4 4 e E$-%r$r$r$s$s$g$g$;%                ",
"                  >%,%,%,%,%,%,%,%,%'%)%4 4 4 4 4 :$!%~%{%]%^%/%/%(%_%{%:%!%:$4 4 4 4 4 )%<%O$O$C$C$C$C$r$r$[%                  ",
"                    }%|%|%|%|%|%|%|%|%1%2%3%4 4 4 4 4 4 4 e 4%z#z#4%e 4 4 4 4 4 4 4 3%2%^%N$N$N$N$N$N$N$N$5%                    ",
"                      6%7%7%7%|%|%|%|%|%|%8%9%0%a%4 4 4 4 4 4 4 4 4 4 4 4 4 4 a%0%b%+%,%,%,%,%,%+%+%+%+%c%                      ",
"                          d%e%e%e%e%e%e%e%f%f%f%g%h%i%j%k%l%m%n%n%m%l%k%j%o%p%q%|%|%|%|%|%|%|%r%r%r%s%                          ",
"                            e%e%e%e%e%e%e%e%e%e%e%e%e%e%e%d%t%u%u%}%d%e%f%f%7%7%7%7%7%7%|%|%|%|%|%|%                            ",
"                                v%v%w%w%w%w%x%x%x%x%x%x%e%e%e%e%e%e%e%e%e%e%e%e%e%e%e%e%e%e%e%e%                                ",
"                                  v%v%v%v%v%v%v%v%v%v%v%v%v%v%v%w%w%w%w%w%x%x%x%x%x%x%e%e%e%e%                                  ",
"                                        y%y%y%y%y%y%y%y%y%y%y%y%v%v%v%v%v%v%v%v%v%v%v%v%                                        ",
"                                            z%z%z%z%y%y%y%y%y%y%y%y%y%y%y%y%y%y%y%y%                                            ",
"                                                    A%A%A%A%A%A%z%z%z%z%z%z%                                                    "};
